<svg xmlns="http://www.w3.org/2000/svg" width="152" height="145" viewBox="0 0 152 145" fill="none"><path d="M61.0001 38H122.458V33.4166H61.0001V38ZM61.0001 61.9583H122.458V57.375H61.0001V61.9583ZM61.0001 85.9166H97.0417V81.3333H61.0001V85.9166ZM35.1667 42.1666C36.9723 42.1666 38.5001 41.5416 39.7501 40.2916C41.0001 39.0416 41.6251 37.5138 41.6251 35.7083C41.6251 34.0416 41.0001 32.5486 39.7501 31.2291C38.5001 29.9097 36.9723 29.25 35.1667 29.25C33.5001 29.25 32.007 29.9097 30.6876 31.2291C29.3681 32.5486 28.7084 34.0416 28.7084 35.7083C28.7084 37.5138 29.3681 39.0416 30.6876 40.2916C32.007 41.5416 33.5001 42.1666 35.1667 42.1666ZM35.1667 66.125C36.9723 66.125 38.5001 65.5 39.7501 64.25C41.0001 63 41.6251 61.4722 41.6251 59.6666C41.6251 58 41.0001 56.5069 39.7501 55.1875C38.5001 53.868 36.9723 53.2083 35.1667 53.2083C33.5001 53.2083 32.007 53.868 30.6876 55.1875C29.3681 56.5069 28.7084 58 28.7084 59.6666C28.7084 61.4722 29.3681 63 30.6876 64.25C32.007 65.5 33.5001 66.125 35.1667 66.125ZM35.1667 90.0833C36.9723 90.0833 38.5001 89.4583 39.7501 88.2083C41.0001 86.9583 41.6251 85.4305 41.6251 83.625C41.6251 81.9583 41.0001 80.4652 39.7501 79.1458C38.5001 77.8263 36.9723 77.1666 35.1667 77.1666C33.5001 77.1666 32.007 77.8263 30.6876 79.1458C29.3681 80.4652 28.7084 81.9583 28.7084 83.625C28.7084 85.4305 29.3681 86.9583 30.6876 88.2083C32.007 89.4583 33.5001 90.0833 35.1667 90.0833ZM0.166748 144.875V14.875C0.166748 10.9861 1.55564 7.68746 4.33341 4.97913C7.11119 2.27079 10.3751 0.916626 14.1251 0.916626H137.875C141.764 0.916626 145.063 2.27079 147.771 4.97913C150.479 7.68746 151.833 10.9861 151.833 14.875V104.875C151.833 108.764 150.479 112.062 147.771 114.771C145.063 117.479 141.764 118.833 137.875 118.833H26.2084L0.166748 144.875ZM7.45841 126.958L23.0834 111.542H137.875C139.82 111.542 141.417 110.917 142.667 109.667C143.917 108.417 144.542 106.819 144.542 104.875V14.875C144.542 12.9305 143.917 11.3333 142.667 10.0833C141.417 8.83329 139.82 8.20829 137.875 8.20829H14.1251C12.1806 8.20829 10.5834 8.83329 9.33341 10.0833C8.08341 11.3333 7.45841 12.9305 7.45841 14.875V126.958ZM7.45841 14.875V8.20829V126.958V14.875Z" fill="#464646"></path></svg>