<svg xmlns="http://www.w3.org/2000/svg" width="158" height="136" viewBox="0 0 158 136" fill="none"><path d="M0.666748 135.542L79.0001 0.541687L157.333 135.542H0.666748ZM13.3751 128.25H144.625L79.0001 15.125L13.3751 128.25ZM79.4168 115.75C80.8056 115.75 81.9515 115.264 82.8542 114.292C83.757 113.319 84.2084 112.208 84.2084 110.958C84.2084 109.569 83.7223 108.389 82.7501 107.417C81.7779 106.444 80.5973 105.958 79.2084 105.958C77.9584 105.958 76.8473 106.444 75.8751 107.417C74.9029 108.389 74.4167 109.569 74.4167 110.958C74.4167 112.347 74.9029 113.493 75.8751 114.396C76.8473 115.299 78.0279 115.75 79.4168 115.75ZM75.6667 97.4167H82.9584V53.6667H75.6667V97.4167Z" fill="#464646"></path></svg>