<svg xmlns="http://www.w3.org/2000/svg" width="143" height="143" viewBox="0 0 143 143" fill="none"><path d="M45.5833 142.833C37.5277 142.833 30.7222 140.056 25.1666 134.5C19.6111 128.944 16.8333 122.069 16.8333 113.875V41.5834C11.9722 39.6389 7.97913 36.8959 4.85413 33.3542C1.72913 29.8125 0.166626 25.8889 0.166626 21.5834C0.166626 15.6112 2.07635 10.6806 5.89579 6.79171C9.71524 2.90282 14.5416 0.958374 20.375 0.958374C26.0694 0.958374 30.8958 2.93754 34.8541 6.89588C38.8125 10.8542 40.7916 15.6806 40.7916 21.375C40.7916 25.6806 39.1944 29.6389 36 33.25C32.8055 36.8612 28.8472 39.6389 24.125 41.5834V113.875C24.125 119.847 26.243 124.951 30.4791 129.188C34.7152 133.424 39.8194 135.542 45.7916 135.542C51.7639 135.542 56.868 133.424 61.1041 129.188C65.3402 124.951 67.4583 119.847 67.4583 113.875V29.9167C67.4583 21.8612 70.2361 15.0209 75.7916 9.39588C81.3472 3.77088 88.1527 0.958374 96.2083 0.958374C104.403 0.958374 111.312 3.77088 116.937 9.39588C122.562 15.0209 125.375 21.8612 125.375 29.9167V102.208C130.097 104.292 134.056 107.104 137.25 110.646C140.444 114.188 142.042 118.111 142.042 122.417C142.042 128.25 140.062 133.111 136.104 137C132.146 140.889 127.319 142.833 121.625 142.833C115.931 142.833 111.139 140.889 107.25 137C103.361 133.111 101.417 128.25 101.417 122.417C101.417 118.111 102.979 114.153 106.104 110.542C109.229 106.931 113.222 104.153 118.083 102.208V29.9167C118.083 24.2223 115.896 19.1875 111.521 14.8125C107.146 10.4375 102.042 8.25004 96.2083 8.25004C90.375 8.25004 85.3402 10.4375 81.1041 14.8125C76.868 19.1875 74.75 24.2223 74.75 29.9167V113.875C74.75 122.069 71.9375 128.944 66.3125 134.5C60.6875 140.056 53.7777 142.833 45.5833 142.833ZM20.375 34.2917C23.9861 34.2917 27.0763 33.0417 29.6458 30.5417C32.2152 28.0417 33.5 24.9862 33.5 21.375C33.5 17.7639 32.25 14.6737 29.75 12.1042C27.25 9.53476 24.125 8.25004 20.375 8.25004C16.7639 8.25004 13.7083 9.50004 11.2083 12C8.70829 14.5 7.45829 17.625 7.45829 21.375C7.45829 24.9862 8.70829 28.0417 11.2083 30.5417C13.7083 33.0417 16.7639 34.2917 20.375 34.2917ZM121.625 135.542C125.236 135.542 128.326 134.292 130.896 131.792C133.465 129.292 134.75 126.236 134.75 122.625C134.75 119.014 133.5 115.924 131 113.354C128.5 110.785 125.375 109.5 121.625 109.5C118.014 109.5 114.958 110.75 112.458 113.25C109.958 115.75 108.708 118.875 108.708 122.625C108.708 126.236 109.958 129.292 112.458 131.792C114.958 134.292 118.014 135.542 121.625 135.542Z" fill="#464646"></path></svg>