<svg xmlns="http://www.w3.org/2000/svg" width="152" height="152" viewBox="0 0 152 152" fill="none"><path d="M84.5416 151.417V144.125C91.0694 143.153 97.1457 141.486 102.771 139.125C108.396 136.764 113.5 133.847 118.083 130.375L122.875 135.583C117.319 140.028 111.347 143.535 104.958 146.104C98.5694 148.674 91.7638 150.444 84.5416 151.417ZM135.583 122.875L130.375 117.875C134.125 113.153 137.146 108.014 139.437 102.458C141.729 96.9028 143.292 90.9306 144.125 84.5417H151.417C150.722 91.4861 148.986 98.2222 146.208 104.75C143.43 111.278 139.889 117.319 135.583 122.875ZM144.125 67.25C143.292 61.1389 141.729 55.2361 139.437 49.5417C137.146 43.8472 134.125 38.6389 130.375 33.9167L135.792 28.9167C140.653 35.5833 144.16 41.6597 146.312 47.1458C148.465 52.632 150.167 59.3333 151.417 67.25H144.125ZM67.2499 151.417C48.0833 148.917 32.1805 140.514 19.5416 126.208C6.9027 111.903 0.583252 95.1667 0.583252 76C0.583252 56.6944 6.9027 39.8889 19.5416 25.5833C32.1805 11.2778 48.0833 2.875 67.2499 0.375V7.66667C50.1666 10.1667 35.9999 17.8403 24.7499 30.6875C13.4999 43.5347 7.87492 58.6389 7.87492 76C7.87492 93.0833 13.4999 108.083 24.7499 121C35.9999 133.917 50.1666 141.625 67.2499 144.125V151.417ZM118.5 21.8333C113.222 18.0833 107.736 14.9931 102.042 12.5625C96.3471 10.1319 90.7221 8.5 85.1666 7.66667V0.375C91.9721 1.34722 98.4999 3.15278 104.75 5.79167C111 8.43056 117.042 11.9028 122.875 16.2083L118.5 21.8333ZM75.9999 112.875C66.4166 104.542 59.2291 96.7986 54.4374 89.6458C49.6458 82.4931 47.2499 75.8611 47.2499 69.75C47.2499 60.7222 50.1319 53.5347 55.8957 48.1875C61.6596 42.8403 68.361 40.1667 75.9999 40.1667C83.6388 40.1667 90.3749 42.8403 96.2083 48.1875C102.042 53.5347 104.958 60.7222 104.958 69.75C104.958 75.8611 102.528 82.4931 97.6666 89.6458C92.8055 96.7986 85.5833 104.542 75.9999 112.875ZM75.9999 77.0417C78.2221 77.0417 80.0971 76.2778 81.6249 74.75C83.1527 73.2222 83.9166 71.3472 83.9166 69.125C83.9166 66.9028 83.1527 65.0625 81.6249 63.6042C80.0971 62.1458 78.2221 61.4167 75.9999 61.4167C73.9166 61.4167 72.111 62.1458 70.5833 63.6042C69.0555 65.0625 68.2916 66.9028 68.2916 69.125C68.2916 71.3472 69.0555 73.2222 70.5833 74.75C72.111 76.2778 73.9166 77.0417 75.9999 77.0417Z" fill="#464646"></path></svg>