<svg xmlns="http://www.w3.org/2000/svg" width="118" height="152" viewBox="0 0 118 152" fill="none"><path d="M41.9167 96.8333L59.0001 83.7083L75.6667 96.4166L69.0001 76L86.7084 62.6666H65.6667L59.0001 41.8333L52.3334 62.6666H31.2917L48.5834 76L41.9167 96.8333ZM59.0001 151.625C42.1945 146.486 28.1667 136.139 16.9167 120.583C5.66674 105.028 0.041748 87.5277 0.041748 68.0833V22.875L59.0001 0.791626L117.958 22.875V68.0833C117.958 87.5277 112.333 105.028 101.083 120.583C89.8334 136.139 75.8056 146.486 59.0001 151.625ZM59.0001 143.917C73.8612 139.056 86.1876 129.542 95.9792 115.375C105.771 101.208 110.667 85.4444 110.667 68.0833V27.875L59.0001 8.49996L7.33341 27.875V68.0833C7.33341 85.4444 12.2292 101.208 22.0209 115.375C31.8126 129.542 44.139 139.056 59.0001 143.917Z" fill="#464646"></path></svg>