<svg xmlns="http://www.w3.org/2000/svg" width="148" height="170" viewBox="0 0 148 170" fill="none"><path d="M74 169.75C63.8611 169.75 54.3125 167.84 45.3542 164.021C36.3958 160.201 28.5486 154.924 21.8125 148.188C15.0764 141.451 9.79861 133.604 5.97917 124.646C2.15972 115.688 0.25 106.139 0.25 96C0.25 83.2223 3.20139 71.3473 9.10417 60.375C15.0069 49.4028 23.5139 40.4445 34.625 33.5C34.7639 34.75 35.0069 35.9306 35.3542 37.0417C35.7014 38.1528 36.0139 39.4723 36.2917 41C27.125 47.25 20.0417 55.2361 15.0417 64.9584C10.0417 74.6806 7.54167 85.0278 7.54167 96C7.54167 114.472 14 130.167 26.9167 143.083C39.8333 156 55.5278 162.458 74 162.458C92.4722 162.458 108.201 156 121.188 143.083C134.174 130.167 140.667 114.472 140.667 96C140.667 84.8889 138.097 74.4723 132.958 64.75C127.819 55.0278 120.667 47.0417 111.5 40.7917C111.639 39.5417 111.951 38.3264 112.438 37.1459C112.924 35.9653 113.167 34.75 113.167 33.5C124.278 40.4445 132.854 49.4375 138.896 60.4792C144.938 71.5209 147.958 83.3611 147.958 96C147.958 106.139 146.014 115.688 142.125 124.646C138.236 133.604 132.924 141.451 126.188 148.188C119.451 154.924 111.604 160.201 102.646 164.021C93.6875 167.84 84.1389 169.75 74 169.75ZM74 136.417C62.75 136.417 53.2014 132.493 45.3542 124.646C37.5069 116.799 33.5833 107.25 33.5833 96C33.5833 90.5834 34.5903 85.5139 36.6042 80.7917C38.6181 76.0695 41.3611 71.7639 44.8333 67.875C45.25 69.5417 45.7014 71.0695 46.1875 72.4584C46.6736 73.8473 47.1945 75.0278 47.75 76C45.3889 78.7778 43.6528 81.9375 42.5417 85.4792C41.4306 89.0209 40.875 92.5278 40.875 96C40.875 105.306 44.0694 113.153 50.4583 119.542C56.8472 125.931 64.6945 129.125 74 129.125C83.3056 129.125 91.1875 125.931 97.6458 119.542C104.104 113.153 107.333 105.306 107.333 96C107.333 92.3889 106.708 88.882 105.458 85.4792C104.208 82.0764 102.472 78.9167 100.25 76C100.667 74.75 100.736 74.6806 100.458 75.7917C100.181 76.9028 101.083 74.1945 103.167 67.6667C106.778 71.6945 109.59 76.0695 111.604 80.7917C113.618 85.5139 114.625 90.5834 114.625 96C114.625 107.25 110.701 116.799 102.854 124.646C95.007 132.493 85.3889 136.417 74 136.417ZM69.4167 62.0417C64 46.3473 60.7361 36.1042 59.625 31.3125C58.5139 26.5209 57.9583 21.6945 57.9583 16.8334C57.9583 12.3889 59.5208 8.56948 62.6458 5.37504C65.7708 2.1806 69.5556 0.583374 74 0.583374C78.4445 0.583374 82.2639 2.1806 85.4583 5.37504C88.6528 8.56948 90.25 12.3889 90.25 16.8334C90.25 21.6945 89.6597 26.5209 88.4792 31.3125C87.2986 36.1042 84.0694 46.3473 78.7917 62.0417H69.4167ZM74 107.875C70.5278 107.875 67.6806 106.764 65.4583 104.542C63.2361 102.319 62.125 99.4723 62.125 96C62.125 92.5278 63.2361 89.6459 65.4583 87.3542C67.6806 85.0625 70.5278 83.9167 74 83.9167C77.4722 83.9167 80.3542 85.0973 82.6458 87.4584C84.9375 89.8195 86.0833 92.6667 86.0833 96C86.0833 99.4723 84.9028 102.319 82.5417 104.542C80.1806 106.764 77.3333 107.875 74 107.875Z" fill="#464646"></path></svg>