<svg xmlns="http://www.w3.org/2000/svg" width="164" height="107" viewBox="0 0 164 107" fill="none"><path d="M32.2083 106.375C26.5138 106.375 21.6527 104.5 17.6249 100.75C13.5971 97 11.236 92.5556 10.5416 87.4167C8.45825 87.4167 6.23603 86.5833 3.87492 84.9167C1.51381 83.25 0.333252 79.9167 0.333252 74.9167V14.0833C0.333252 10.3333 1.68742 7.06945 4.39575 4.29167C7.10409 1.51389 10.4027 0.125 14.2916 0.125H108.25C110.611 0.125 112.972 0.506947 115.333 1.27084C117.694 2.03472 119.778 3.45833 121.583 5.54167L149.292 42.4167C150.264 43.9444 150.924 45.6111 151.271 47.4167C151.618 49.2222 151.792 51.0278 151.792 52.8333V64.5C155.125 66.3056 157.972 68.875 160.333 72.2083C162.694 75.5417 163.875 79.5695 163.875 84.2917C163.875 90.125 161.687 95.2639 157.312 99.7083C152.937 104.153 147.764 106.375 141.792 106.375C135.819 106.375 130.889 104.535 127 100.854C123.111 97.1736 120.68 92.6945 119.708 87.4167H54.4999C53.5277 92.4167 51.1319 96.8264 47.3124 100.646C43.493 104.465 38.4583 106.375 32.2083 106.375ZM7.62492 38.25H47.4166V7.41667H14.2916C12.3471 7.41667 10.7499 8.04167 9.49992 9.29167C8.24992 10.5417 7.62492 12.1389 7.62492 14.0833V38.25ZM54.7083 80.75H107V7.41667H54.7083V38.25H85.3333V45.5417H54.7083V80.75ZM114.292 47H143.458L114.292 8.45833V47ZM32.4166 99.0833C36.4444 99.0833 39.9513 97.6597 42.9374 94.8125C45.9235 91.9653 47.4166 88.4583 47.4166 84.2917C47.4166 80.125 45.9235 76.5833 42.9374 73.6667C39.9513 70.75 36.4444 69.2917 32.4166 69.2917C28.2499 69.2917 24.743 70.75 21.8958 73.6667C19.0485 76.5833 17.6249 80.125 17.6249 84.2917C17.6249 88.4583 19.0485 91.9653 21.8958 94.8125C24.743 97.6597 28.2499 99.0833 32.4166 99.0833ZM141.792 99.0833C145.819 99.0833 149.292 97.6597 152.208 94.8125C155.125 91.9653 156.583 88.4583 156.583 84.2917C156.583 80.125 155.125 76.5833 152.208 73.6667C149.292 70.75 145.75 69.2917 141.583 69.2917C137.555 69.2917 134.083 70.75 131.167 73.6667C128.25 76.5833 126.792 80.125 126.792 84.2917C126.792 88.4583 128.25 91.9653 131.167 94.8125C134.083 97.6597 137.625 99.0833 141.792 99.0833ZM7.62492 45.5417V75.3333C7.48603 77.1389 7.55547 78.4236 7.83325 79.1875C8.11103 79.9514 9.08325 80.3333 10.7499 80.3333C11.4444 75.1944 13.8749 70.8542 18.0416 67.3125C22.2083 63.7708 26.9999 62 32.4166 62C35.1944 62 38.0763 62.6944 41.0624 64.0833C44.0485 65.4722 46.1666 67.1389 47.4166 69.0833V45.5417H7.62492ZM114.292 80.75H119.917C120.472 76.0278 122.833 71.6875 127 67.7292C131.167 63.7708 136.583 62.4861 143.25 63.875V54.2917H114.292V80.75ZM114.292 54.2917H143.25H119.917H114.292Z" fill="#464646"></path></svg>