<svg xmlns="http://www.w3.org/2000/svg" width="135" height="152" viewBox="0 0 135 152" fill="none"><path d="M101.292 118.917C104.903 118.917 107.958 117.632 110.458 115.063C112.958 112.493 114.208 109.472 114.208 106C114.208 102.528 112.924 99.507 110.354 96.9375C107.785 94.3681 104.764 93.0834 101.292 93.0834C97.6806 93.0834 94.6251 94.3334 92.1251 96.8334C89.6251 99.3334 88.3751 102.389 88.3751 106C88.3751 109.611 89.6598 112.667 92.2292 115.167C94.7987 117.667 97.8195 118.917 101.292 118.917ZM101.292 144.125C105.875 144.125 110.007 143.222 113.688 141.417C117.368 139.611 120.458 136.903 122.958 133.292C119.486 131.486 115.945 130.063 112.333 129.021C108.722 127.979 105.042 127.458 101.292 127.458C97.5417 127.458 93.8265 127.979 90.1459 129.021C86.4654 130.063 83.0279 131.486 79.8334 133.292C82.1945 136.903 85.2153 139.611 88.8959 141.417C92.5765 143.222 96.7084 144.125 101.292 144.125ZM58.3751 151.417C41.8473 146.417 27.9931 136.243 16.8126 120.896C5.63202 105.549 0.041748 87.9445 0.041748 68.0834V22.875L59.0001 0.791687L118.167 22.875V73.7084C117.195 73.2917 115.945 72.8403 114.417 72.3542C112.889 71.8681 111.708 71.4861 110.875 71.2084V27.4584L59.0001 8.50002L7.33341 27.4584V68.0834C7.33341 78.5 8.86119 87.875 11.9167 96.2084C14.9723 104.542 19.0348 111.972 24.1042 118.5C29.1737 125.028 34.7987 130.41 40.9792 134.646C47.1598 138.882 53.3751 141.694 59.6251 143.083L60.2501 142.875C60.389 143.847 60.8404 144.993 61.6042 146.313C62.3681 147.632 63.3056 148.639 64.4167 149.333C63.3056 149.889 62.264 150.306 61.2917 150.583L58.3751 151.417ZM101.5 151.833C92.3334 151.833 84.5556 148.639 78.1667 142.25C71.7779 135.861 68.5834 128.083 68.5834 118.917C68.5834 109.75 71.7779 101.938 78.1667 95.4792C84.5556 89.0209 92.3334 85.7917 101.5 85.7917C110.667 85.7917 118.445 88.9861 124.833 95.375C131.222 101.764 134.417 109.611 134.417 118.917C134.417 128.083 131.222 135.861 124.833 142.25C118.445 148.639 110.667 151.833 101.5 151.833Z" fill="#464646"></path></svg>