<svg xmlns="http://www.w3.org/2000/svg" width="141" height="172" viewBox="0 0 141 172" fill="none"><path d="M62.4584 24.8333V0.25H69.7501V24.8333H62.4584ZM32.2501 39L13.7084 20.25L18.7084 15.0417L37.4584 33.7917L32.2501 39ZM3.08341 171.292C2.25008 171.292 1.55564 171.049 1.00008 170.562C0.444525 170.076 0.166748 169.417 0.166748 168.583V107.542L16.8334 60.0417C17.1112 59.0694 17.7709 58.2708 18.8126 57.6458C19.8542 57.0208 20.9306 56.7083 22.0417 56.7083H51.0001V44.8333H64.1251C62.8751 47.6111 61.9029 50.3889 61.2084 53.1667C60.514 55.9444 60.1667 58.8611 60.1667 61.9167V62.3333H22.0417L8.91675 99H74.9584C76.0695 100.389 77.389 101.708 78.9168 102.958C80.4445 104.208 82.1112 105.319 83.9167 106.292H5.79175V148.792H126.208V111.083C127.181 110.667 128.153 110.215 129.125 109.729L131.833 108.375V168.583C131.833 169.278 131.521 169.903 130.896 170.458C130.271 171.014 129.611 171.292 128.917 171.292H129.542C128.708 171.292 128.014 171.049 127.458 170.562C126.903 170.076 126.625 169.417 126.625 168.583V154.417H5.37508V168.583C5.37508 169.417 5.06258 170.076 4.43758 170.562C3.81258 171.049 3.15286 171.292 2.45842 171.292H3.08341ZM22.2501 132.333H44.5417C45.7917 132.333 46.9376 131.778 47.9792 130.667C49.0209 129.556 49.5417 128.375 49.5417 127.125C49.5417 125.875 48.9862 124.764 47.8751 123.792C46.764 122.819 45.6529 122.333 44.5417 122.333H22.2501V132.333ZM109.75 132.333V122.333H87.4584C86.2084 122.333 85.0626 122.854 84.0209 123.896C82.9792 124.937 82.4584 126.083 82.4584 127.333C82.4584 128.583 83.014 129.729 84.1251 130.771C85.2362 131.812 86.3473 132.333 87.4584 132.333H109.75ZM104.333 81.0833L131 54.2083L127.25 50.25L104.333 73.5833L92.6667 61.7083L88.7084 65.4583L104.333 81.0833ZM110.167 32.9583C118.5 32.9583 125.653 35.9444 131.625 41.9167C137.597 47.8889 140.583 55.1111 140.583 63.5833C140.583 72.0556 137.597 79.2431 131.625 85.1458C125.653 91.0486 118.431 94 109.958 94C101.486 94 94.2987 91.0486 88.3959 85.1458C82.4931 79.2431 79.5417 71.9861 79.5417 63.375C79.5417 55.0417 82.4931 47.8889 88.3959 41.9167C94.2987 35.9444 101.556 32.9583 110.167 32.9583Z" fill="#464646"></path></svg>