<svg xmlns="http://www.w3.org/2000/svg" width="162" height="146" viewBox="0 0 162 146" fill="none"><path d="M79.5832 145.917L112.708 58.4166H127.708L161.25 145.917H145.833L138.125 123.208H102.917L94.7916 145.917H79.5832ZM107.083 110.5H133.125L120.417 74.6666H120L107.083 110.5ZM22.0833 124.042L11.6666 113.417L48.7499 76.5416C44.3055 71.4027 40.3124 66.1249 36.7707 60.7082C33.2291 55.2916 30.2083 49.6666 27.7083 43.8333H42.9166C45.1388 47.9999 47.4999 51.8541 49.9999 55.3957C52.4999 58.9374 55.3471 62.5832 58.5416 66.3332C63.9582 60.361 68.4721 54.3888 72.0832 48.4166C75.6944 42.4444 78.7499 36.0555 81.2499 29.2499H0.208252V14.6666H51.2499V0.083252H65.8332V14.6666H116.875V29.2499H95.8332C93.3332 37.7221 89.8957 45.986 85.5208 54.0416C81.1458 62.0971 75.6944 69.6666 69.1666 76.7499L86.6666 94.8749L81.2499 109.667L58.5416 87.5832L22.0833 124.042Z" fill="#464646"></path></svg>