<svg xmlns="http://www.w3.org/2000/svg" width="136" height="136" viewBox="0 0 136 136" fill="none"><path d="M68.0417 135.5C50.125 135.5 34.7083 129.632 21.7917 117.896C8.875 106.16 1.86111 91.4722 0.75 73.8333H8.25C9.63889 89.25 15.9931 102.167 27.3125 112.583C38.6319 123 52.1389 128.208 67.8333 128.208C84.5 128.208 98.7014 122.306 110.437 110.5C122.174 98.6944 128.042 84.3889 128.042 67.5833C128.042 50.9167 122.208 36.7847 110.542 25.1875C98.875 13.5903 84.7083 7.79167 68.0417 7.79167C59.2917 7.79167 50.9931 9.59722 43.1458 13.2083C35.2986 16.8194 28.5278 21.8194 22.8333 28.2083H43.4583V35.5H10.3333V2.16667H17.625V23.2083C23.875 15.9861 31.4097 10.3958 40.2292 6.4375C49.0486 2.47917 58.3194 0.5 68.0417 0.5C77.3472 0.5 86.0625 2.27083 94.1875 5.8125C102.312 9.35416 109.396 14.1806 115.437 20.2917C121.479 26.4028 126.306 33.5556 129.917 41.75C133.528 49.9444 135.333 58.625 135.333 67.7917C135.333 77.0972 133.528 85.8819 129.917 94.1458C126.306 102.41 121.479 109.597 115.437 115.708C109.396 121.819 102.312 126.646 94.1875 130.187C86.0625 133.729 77.3472 135.5 68.0417 135.5ZM94.2917 100.917L62.4167 69.4583V24.4583H69.7083V66.3333L99.5 95.7083L94.2917 100.917Z" fill="#464646"></path></svg>